<?xml version="1.0" encoding="UTF-8"?>
<svg width="984px" height="984px" viewBox="0 0 984 984" version="1.1" xmlns="http://www.w3.org/2000/svg" xmlns:xlink="http://www.w3.org/1999/xlink">
    <!-- Generator: Sketch 49.1 (51147) - http://www.bohemiancoding.com/sketch -->
    <title>logo quadrato</title>
    <desc>Created with Sketch.</desc>
    <defs></defs>
    <g id="logo-quadrato" stroke="none" stroke-width="1" fill="none" fill-rule="evenodd">
        <g id="quadratoEE" fill="#FEB600">
            <path d="M677.525223,984 L100,984 C44.771525,984 6.76353751e-15,939.228475 0,884 L0,615.414436 C0.344338004,617.482093 0.700250454,619.557156 1.06782524,621.639612 C28.9149271,779.40441 127.508949,912.507327 303.692004,881.473754 C421.80355,860.669124 505.556071,771.698487 483.452434,646.472678 C482.060079,638.584438 470.056982,587.830994 455.293039,590.431573 C441.513359,592.85878 463.268907,716.112529 301.849795,744.545523 C252.636652,753.214119 171.915164,732.865365 163.735078,686.521955 C145.634461,583.974836 470.399105,572.520429 432.979562,360.523981 C412.442324,244.172443 310.115125,199.162172 201.846208,218.233082 C108.409191,234.691444 25.4542523,310.534906 2.66453526e-15,438.204407 L0,100 C-6.76353751e-15,44.771525 44.771525,1.01453063e-14 100,0 L884,0 C939.228475,-1.01453063e-14 984,44.771525 984,100 L984,755.187136 C981.346828,742.666069 970.011832,699.015091 956.293039,701.431573 C942.513359,703.85878 964.268907,827.112529 802.849795,855.545523 C753.636652,864.214119 672.915164,843.865365 664.735078,797.521955 C646.634461,694.974836 971.399105,683.520429 933.979562,471.523981 C913.442324,355.172443 811.115125,310.162172 702.846208,329.233082 C570.954983,352.464919 459.949084,494.020355 502.067825,732.639612 C522.307033,847.302692 579.917224,948.938509 677.525223,984 Z M839.730147,984 C913.795909,960.913292 969.092531,908.584926 984,836.66442 L984,884 C984,939.228475 939.228475,984 884,984 L839.730147,984 Z M217.462132,335.451481 C254.864121,328.863348 304.839412,347.511049 313.367587,395.826519 C322.24385,446.114048 150.069782,517.108937 138.258628,519.1894 C125.46321,521.443234 118.627408,511.463764 116.712919,500.617434 C106.618345,443.427695 137.736839,349.494606 217.462132,335.451481 Z M718.462132,446.451481 C755.864121,439.863348 805.839412,458.511049 814.367587,506.826519 C823.24385,557.114048 651.069782,628.108937 639.258628,630.1894 C626.46321,632.443234 619.627408,622.463764 617.712919,611.617434 C607.618345,554.427695 638.736839,460.494606 718.462132,446.451481 Z" id="Combined-Shape"></path>
        </g>
    </g>
</svg>