<?xml version="1.0" encoding="UTF-8"?>
<svg width="1346px" height="445px" viewBox="0 0 1346 445" version="1.1" xmlns="http://www.w3.org/2000/svg" xmlns:xlink="http://www.w3.org/1999/xlink">
    <!-- Generator: Sketch 49.1 (51147) - http://www.bohemiancoding.com/sketch -->
    <title>logo gleet</title>
    <desc>Created with Sketch.</desc>
    <defs></defs>
    <g id="logo-gleet" stroke="none" stroke-width="1" fill="none" fill-rule="evenodd">
        <path d="M155.890183,444 C51.6638935,444 0,372.167053 0,272.049884 C0,166.096288 58.8519135,57 166.222962,57 C205.30782,57 265.507488,73.6113689 265.507488,122.098608 C265.507488,148.138051 247.537438,162.953596 219.234609,162.953596 C200.815308,162.953596 225.524126,120.75174 168.469218,120.75174 C97.4875208,120.75174 72.7787022,201.114849 72.7787022,263.519722 C72.7787022,312.455916 86.7054908,364.085847 145.557404,364.085847 C173.410982,364.085847 203.510815,352.412993 203.510815,320.986079 C203.510815,284.62065 168.019967,281.477958 168.019967,269.805104 C168.019967,263.968677 245.291181,236.133411 250.682196,236.133411 C259.667221,236.133411 270,345.678654 270,359.147332 C270,417.960557 211.597338,444 155.890183,444 Z" id="g" fill="#FEB600"></path>
        <path d="M354.483411,443.692339 L307.062877,443.692339 C291.256032,443.692339 293.062529,293.421257 293.062529,283.104138 C293.062529,262.021329 291.256032,61.0617929 311.579118,61.0617929 L354.483411,61.0617929 C359.451276,61.0617929 373,59.7160817 373,69.5846303 C373,72.2760527 354.031786,136.870189 354.031786,248.564217 C354.031786,371.921076 371.193503,432.478079 371.193503,438.309494 C371.193503,445.935191 359.451276,443.692339 354.483411,443.692339 Z" id="l" fill="#FEB600"></path>
        <g id="quadratoEE" transform="translate(397.000000, 0.000000)" fill="#FEB600">
            <path d="M305.7126,444 L50,444 C22.3857625,444 3.38176876e-15,421.614237 0,394 L0,277.687002 C0.155372026,278.619969 0.315966668,279.556278 0.481823586,280.495922 C13.0469793,351.682478 57.5345259,411.741111 137.031758,397.738157 C190.325992,388.350702 228.116764,348.205415 218.143172,291.701086 C217.514914,288.141759 212.098882,265.240815 205.437103,266.414246 C199.219442,267.50945 209.03597,323.123946 136.200517,335.953468 C113.994587,339.864907 77.5714763,330.683152 73.8804618,309.772102 C65.7131106,263.500841 212.253255,258.332389 195.368827,162.675455 C186.102024,110.17537 139.929995,89.8658579 91.0769476,98.471025 C48.9163424,105.897359 11.4854553,140.119409 -8.8817842e-16,197.726379 L0,50 C-3.38176876e-15,22.3857625 22.3857625,5.07265313e-15 50,0 L394,0 C421.614237,-5.07265313e-15 444,22.3857625 444,50 L444,340.755171 C442.802837,335.105421 437.688266,315.409248 431.498079,316.499612 C425.280418,317.594815 435.096946,373.209312 362.261493,386.038834 C340.055562,389.950273 303.632452,380.768518 299.941437,359.857468 C291.774086,313.586207 438.31423,308.417754 421.429802,212.760821 C412.163,160.260736 365.990971,139.951224 317.137923,148.556391 C257.626029,159.039049 207.538001,222.911623 226.542799,330.581288 C235.675125,382.319507 261.669967,428.179571 305.7126,444 Z M378.902627,444 C412.322544,433.582827 437.273459,409.971247 444,377.519312 L444,394 C444,421.614237 421.614237,444 394,444 L378.902627,444 Z M98.1231569,151.362253 C114.999664,148.389559 137.549491,156.803766 141.39757,178.604649 C145.402713,201.295363 67.7144139,233.329642 62.3849905,234.268388 C56.6114485,235.285362 53.527001,230.78243 52.6631465,225.888355 C48.1082776,200.083228 62.1495491,157.698786 98.1231569,151.362253 Z M324.184133,201.447619 C341.06064,198.474925 363.610466,206.889132 367.458545,228.690015 C371.463689,251.380729 293.77539,283.415008 288.445966,284.353753 C282.672424,285.370728 279.587977,280.867796 278.724122,275.97372 C274.169253,250.168594 288.210525,207.784151 324.184133,201.447619 Z" id="Combined-Shape"></path>
        </g>
        <path d="M864,361.410712 C864,304.855004 919.673469,265.804634 969.959184,257.276392 C982.979592,255.032118 993.306122,252.787844 993.306122,237.975635 C993.306122,215.084039 969.510204,202.964958 949.755102,202.964958 C903.959184,202.964958 910.693878,241.566474 900.816327,241.566474 C886.44898,241.566474 870.734694,224.061135 870.734694,204.760378 C870.734694,171.545121 908,150.000089 949.306122,150.000089 C963.673469,150.000089 1025.18367,149.551234 1048.08163,212.39091 C1057.5102,238.42449 1058.40816,371.285518 1058.40816,386.995437 C1058.40816,406.745049 1062,418.415275 1062,433.676339 C1062,443.10229 1019.79592,444 979.836735,444 C871.632653,444 864,388.342002 864,361.410712 Z M997.795918,355.575599 L997.795918,335.825987 C997.795918,320.116068 1000.4898,301.264165 978.938776,301.264165 C952.44898,301.264165 924.612245,323.706907 924.612245,351.087051 C924.612245,376.222921 946.612245,391.035131 970.408163,391.035131 C996.897959,391.035131 997.795918,377.569486 997.795918,355.575599 Z" id="a" fill="#FEB600"></path>
        <path d="M1231.53514,444.160694 L1184.40256,444.160694 C1175.8738,444.160694 1156.123,462.113974 1156.123,331.952697 C1156.123,231.863164 1175.8738,168.129021 1175.8738,151.522238 C1175.8738,138.057278 1178.11821,129.978302 1166.89617,129.978302 C1135.02556,129.978302 1078.91534,181.593981 1071.28435,181.593981 C1067.24441,181.593981 1065,183.389309 1065,170.822013 C1065,156.908222 1077.11981,101.253055 1083.85304,88.6857594 C1088.34185,80.1579516 1148.94089,64 1209.53994,64 C1281.8099,64 1346,83.2997755 1346,104.394879 C1346,124.143486 1324.00479,166.782525 1319.06709,166.782525 C1311.4361,166.782525 1293.03195,129.52947 1260.71246,129.52947 C1233.33067,129.52947 1228.84185,215.25638 1228.84185,256.548923 C1228.84185,371.898744 1253.53035,428.451574 1253.53035,436.53055 C1253.53035,446.404854 1237.37061,444.160694 1231.53514,444.160694 Z" id="T" fill="#FEB600"></path>
    </g>
</svg>